# xmcd
#
# Track frame offsets:
#	150
#	15235
#	28921
#	42157
#	56513
#	71615
#	86148
#	99777
#	115170
#	127724
#	141371
#	154741
#	168377
#	180538
#	195763
#
# Disc length: 2780 seconds
#
# Revision: 0
# Processed by: cddbd v1.5.2PL0 Copyright (c) Steve Scherf et al.
# Submitted via: dBpowerAMP V4.0
#
DISCID=b50ada0f
DTITLE=Los Temerarios - La mejor colección
DYEAR=2007
DGENRE=Country
TTITLE0=Tu infame engaño
TTITLE1=Una lágrima más
TTITLE2=Ven porque te necesito
TTITLE3=Volveré de mi viaje
TTITLE4=Pequeña
TTITLE5=Dimelo
TTITLE6=Nostalgia Campesina
TTITLE7=Al otro lado del sol
TTITLE8=No dejo de amarte
TTITLE9=La culpa no tengo yo
TTITLE10=Como ayer
TTITLE11=Si quiero volver
TTITLE12=Primer amor
TTITLE13=Acepta mi amor
TTITLE14=Cuando quieras verme
EXTD=
EXTT0=
EXTT1=
EXTT2=
EXTT3=
EXTT4=
EXTT5=
EXTT6=
EXTT7=
EXTT8=
EXTT9=
EXTT10=
EXTT11=
EXTT12=
EXTT13=
EXTT14=
PLAYORDER=
